<?xml version="1.0" standalone="no"?>
<!DOCTYPE svg PUBLIC "-//W3C//DTD SVG 20010904//EN"
 "http://www.w3.org/TR/2001/REC-SVG-20010904/DTD/svg10.dtd">
<svg version="1.0" xmlns="http://www.w3.org/2000/svg"
 width="600.000000pt" height="600.000000pt" viewBox="0 0 600.000000 600.000000"
 preserveAspectRatio="xMidYMid meet">
<metadata>
Created by potrace 1.14, written by Peter Selinger 2001-2017
</metadata>
<g transform="translate(0.000000,600.000000) scale(0.100000,-0.100000)"
fill="#000000" stroke="none">
<path d="M0 3000 l0 -3000 3000 0 3000 0 0 3000 0 3000 -3000 0 -3000 0 0
-3000z m3145 1730 c382 -36 721 -183 1013 -438 197 -172 390 -463 481 -726 41
-116 80 -313 88 -437 5 -89 8 -98 27 -102 12 -2 -775 -4 -1749 -4 -974 -1
-1762 1 -1753 4 15 4 18 16 18 61 1 147 51 380 119 551 240 604 813 1033 1455
1090 133 12 179 12 301 1z m1058 -1870 c34 0 46 -3 41 -12 -5 -7 -2 -9 8 -5
11 4 18 -1 21 -14 4 -15 1 -19 -12 -14 -15 5 -16 -1 -10 -52 4 -32 8 -128 8
-213 1 -98 5 -160 12 -167 8 -8 6 -15 -6 -24 -9 -8 -25 -22 -36 -32 -11 -10
-25 -15 -31 -11 -6 4 -8 3 -5 -3 10 -15 -138 -61 -233 -73 -46 -5 -245 -10
-442 -10 -343 0 -358 1 -358 19 0 15 10 20 59 25 65 7 118 37 138 76 9 18 13
93 13 263 l0 237 -425 0 -425 0 0 -240 c0 -153 4 -248 11 -263 16 -36 78 -66
148 -73 50 -6 61 -10 61 -25 0 -18 -15 -19 -312 -19 -172 0 -319 4 -327 9 -24
15 -4 28 53 34 29 3 68 13 85 21 57 30 61 50 61 316 l0 240 -97 2 c-59 2 -17
5 107 9 168 5 572 5 1893 -1z m67 -926 c-8 -8 -15 -27 -16 -41 -3 -28 -22 -45
-39 -36 -5 3 -5 0 2 -7 6 -7 9 -20 6 -29 -4 -13 -3 -13 5 -2 6 8 15 10 22 6
15 -9 -117 -138 -227 -221 -495 -373 -1188 -443 -1748 -175 -55 26 -120 60
-145 76 -25 16 -58 37 -75 46 -16 9 -34 26 -40 37 -5 12 -13 22 -18 22 -4 0
-5 -5 -1 -12 4 -6 3 -8 -2 -5 -14 8 -11 62 4 60 6 -2 9 4 5 13 -5 12 -7 13
-14 3 -6 -10 -9 -9 -15 4 -3 10 -5 20 -3 22 2 2 45 -23 94 -56 640 -423 1462
-369 2036 134 48 42 90 73 95 69 4 -4 4 -2 1 4 -8 14 17 37 27 26 4 -4 6 0 4
8 -2 8 3 14 10 12 8 -1 12 3 9 10 -2 7 2 21 11 31 19 21 29 23 12 1z m1 -73
c-6 -10 -8 -21 -6 -25 3 -3 0 -2 -7 3 -8 8 -8 14 2 26 17 21 23 19 11 -4z
m-2306 -231 c3 -6 -1 -7 -9 -4 -18 7 -21 14 -7 14 6 0 13 -4 16 -10z"/>
<path d="M2841 4639 c-778 -75 -1391 -681 -1481 -1464 -5 -50 -10 -102 -10
-117 l0 -28 415 0 c228 0 415 2 415 5 0 3 -17 29 -37 58 -20 28 -86 126 -147
217 -60 91 -125 185 -145 208 -40 48 -99 86 -148 97 -19 4 -33 13 -33 21 0 12
47 14 300 14 254 0 300 -2 300 -14 0 -10 -16 -17 -47 -21 -96 -13 -119 -36
-98 -99 7 -21 80 -139 162 -262 199 -301 171 -301 362 2 79 125 148 239 154
255 8 19 8 37 1 56 -9 28 -18 32 -111 49 -13 2 -23 11 -23 19 0 13 34 15 230
15 223 0 230 -1 230 -20 0 -11 -7 -20 -15 -20 -35 0 -110 -47 -166 -103 -49
-49 -269 -364 -318 -456 l-12 -21 376 0 375 0 0 240 c0 267 -4 286 -63 316
-17 10 -57 20 -87 23 -42 5 -56 10 -58 24 -4 18 13 18 390 15 362 -4 399 -6
469 -25 214 -60 303 -160 303 -338 -1 -89 -29 -154 -91 -212 l-46 -43 233 0
233 0 -7 83 c-10 116 -32 242 -62 343 -220 761 -955 1259 -1743 1183z"/>
<path d="M3620 3558 l-25 -14 -3 -257 -2 -257 162 0 c150 0 167 2 213 24 100
47 144 116 145 225 0 35 -5 82 -12 105 -17 57 -99 137 -163 160 -66 24 -278
33 -315 14z"/>
<path d="M3590 2610 c0 -240 0 -241 24 -265 30 -30 91 -39 215 -32 231 13 331
109 331 316 0 83 -17 133 -64 189 l-28 32 -239 0 -239 0 0 -240z"/>
<path d="M4243 2640 c0 -47 2 -66 4 -42 2 23 2 61 0 85 -2 23 -4 4 -4 -43z"/>
<path d="M4242 2460 c0 -14 2 -19 5 -12 2 6 2 18 0 25 -3 6 -5 1 -5 -13z"/>
<path d="M4240 2390 c0 -5 5 -10 11 -10 5 0 7 -5 4 -10 -4 -6 -11 -7 -17 -4
-7 4 -8 2 -4 -5 6 -9 11 -9 22 0 11 9 11 15 3 25 -14 17 -19 18 -19 4z"/>
</g>
</svg>
